<svg viewBox="0 0 113 229" fill="none" xmlns="http://www.w3.org/2000/svg"><path d="M0 228.76v-21.28l57.68-89.88c4.3-6.72 8.21-12.97 11.76-18.76a86.72 86.72 0 0 0 8.96-18.2c2.43-6.53 3.64-14 3.64-22.4 0-10.45-1.68-18.67-5.04-24.64-3.36-5.97-9.24-8.96-17.64-8.96-7.1 0-12.6 1.96-16.52 5.88s-6.63 9.05-8.12 15.4a89.09 89.09 0 0 0-2.24 20.44v7.56h-29.96v-7.84c0-13.63 1.77-25.3 5.32-35 3.73-9.9 9.61-17.55 17.64-22.96 8.21-5.41 19.04-8.12 32.48-8.12 18.3 0 31.92 5.23 40.88 15.68 8.96 10.27 13.44 24.55 13.44 42.84 0 9.7-1.21 18.2-3.64 25.48a95.62 95.62 0 0 1-8.96 20.44 411.8 411.8 0 0 1-12.32 19.6l-52.08 79.52h71.68v25.2h-106.96Z" fill="#F2F2F2"/></svg>